HIERARCHY
ROOT pelvis
{
  OFFSET 0 100 0
  CHANNELS 6 Xposition Yposition Zposition Zrotation Xrotation Yrotation
  JOINT pelvis_right_femur
  {
    OFFSET -10.78128 -3.44521 -0.5502486
    CHANNELS 3 Zrotation Xrotation Yrotation
    JOINT right_femur_tibia
    {
      OFFSET -0.8047443 -44.0398 -0.1307829
      CHANNELS 3 Zrotation Xrotation Yrotation
      JOINT right_tibia_foot
      {
        OFFSET 3.006224 -47.83518 -5
        CHANNELS 3 Zrotation Xrotation Yrotation
        End Site
        {
          OFFSET 0 -5 15
        }
      }
    }
  }
  JOINT pelvis_left_femur
  {
    OFFSET 10.78128 -3.44521 -0.5502486
    CHANNELS 3 Zrotation Xrotation Yrotation
    JOINT left_femur_tibia
    {
      OFFSET 0.8047443 -44.0398 -0.1307829
      CHANNELS 3 Zrotation Xrotation Yrotation
      JOINT left_tibia_foot
      {
        OFFSET -4.370144 -48.10324 -4.275266
        CHANNELS 3 Zrotation Xrotation Yrotation
        End Site
        {
          OFFSET 0 -5 15
        }
      }
    }
  }
  JOINT pelvis_spine1
  {
    OFFSET 0 6.468898 -3.129235
    CHANNELS 3 Zrotation Xrotation Yrotation
    JOINT spine1
    {
      OFFSET 0 23.15396 4.99043
      CHANNELS 3 Zrotation Xrotation Yrotation
      JOINT spine2
      {
        OFFSET 0 20.79997 -5.064912
        CHANNELS 3 Zrotation Xrotation Yrotation
        JOINT neck
        {
          OFFSET 0 14.38658 9.616178
          CHANNELS 3 Zrotation Xrotation Yrotation
          End Site
          {
            OFFSET 0 20 0
          }
        }
      }
      JOINT right_manubrium
      {
        OFFSET -5.722621 16.35077 3.967754
        CHANNELS 3 Zrotation Xrotation Yrotation
        JOINT right_clavicle
        {
          OFFSET -13.16364 1.694482 -4.693211
          CHANNELS 3 Zrotation Xrotation Yrotation
          JOINT right_humerus
          {
            OFFSET -28.5034 -0.3100689 -2.792744
            CHANNELS 3 Zrotation Xrotation Yrotation
            JOINT right_radius
            {
              OFFSET -25.15693 0.02248979 -1.271978
              CHANNELS 3 Zrotation Xrotation Yrotation
              End Site
              {
                OFFSET -15 0 0
              }
            }
          }
        }
      }
      JOINT left_manubrium
      {
        OFFSET 5.722621 16.35077 3.967754
        CHANNELS 3 Zrotation Xrotation Yrotation
        JOINT left_clavicle
        {
          OFFSET 13.16364 1.694482 -4.693211
          CHANNELS 3 Zrotation Xrotation Yrotation
          JOINT left_humerus
          {
            OFFSET 29.39168 -1.063119 -2.237045
            CHANNELS 3 Zrotation Xrotation Yrotation
            JOINT left_radius
            {
              OFFSET 24.59957 -0.9528479 0.9047498
              CHANNELS 3 Zrotation Xrotation Yrotation
              End Site
              {
                OFFSET 15 -0 -0
              }
            }
          }
        }
      }
    }
  }
}
MOTION
Frames: 11
Frame Time: 0.0416666666667
-749.1432 102.887 2528.349 -4.287536 -6.504098 -34.40468 4.564296 -15.79189 3.177354 -0 16.39264 -0 -2.768871 -3.624525 -8.282126 -3.669994 15.69887 -7.849335 -0 44.09205 -0 -7.518593 -11.42313 14.46958 1.238741 -0.7864311 3.860756 2.830486 11.27608 -9.276919 1.716705 24.07074 2.704934 -0.2886767 -25.26059 6.847798 -9.850538 -20.81621 11.37369 101.0498 19.54818 -24.37491 -0 0 7.853807 -18.8108 4.637059 0.3310713 6.337588 -23.08605 -4.06546 -85.56466 11.39539 11.05347 0 0 -21.95389 16.43097 16.29281 -17.43152
-753.4907 103.9551 2533.626 -4.718632 -7.146711 -35.01733 4.807983 -10.76131 3.814686 -0 17.59565 -0 -3.305554 -4.797866 -7.872275 -3.456952 10.81102 -7.763937 -0 51.76909 -0 -7.694268 -9.2392 15.2284 1.314503 -0.6844878 4.243728 2.682323 11.69216 -9.151044 1.731199 23.89594 2.504265 -0.443485 -24.96337 6.682897 -9.606476 -21.66568 11.53672 100.7485 19.77691 -23.57723 -0 0 8.969781 -18.92088 5.01377 0.9090927 5.744768 -23.00114 -4.215898 -86.01964 11.37747 13.07042 0 0 -20.2316 16.03118 16.2755 -16.13672
-757.563 105.1611 2538.678 -5.020324 -7.7017 -35.78272 4.915608 -5.757474 4.247507 -0 17.36013 -0 -3.502198 -5.929347 -7.103905 -3.121775 4.280442 -7.335029 -0 56.67233 -0 -7.6262 -7.98753 16.12768 1.40275 -0.558095 4.697558 2.519451 12.10204 -8.98402 1.768507 23.70042 2.222628 -0.685775 -24.61927 6.516075 -9.375194 -22.69548 11.69368 100.322 20.10364 -22.48153 -0 0 10.40348 -18.9848 5.489421 1.582007 5.028188 -22.76874 -4.295313 -86.58912 11.37531 15.50272 0 0 -18.07192 15.56156 16.31003 -14.68807
-761.3536 106.1611 2543.527 -5.22127 -8.067711 -36.61985 5.005884 -0.9811677 4.5553 -0 16.0336 -0 -3.34855 -7.28786 -6.204017 -2.455887 -2.911498 -6.554716 -0 57.33774 -0 -7.323229 -7.515504 17.17867 1.492329 -0.4361484 5.19881 2.344938 12.47541 -8.781259 1.821152 23.47528 1.884879 -0.9885576 -24.21879 6.351724 -9.143773 -23.84728 11.82637 99.74073 20.5055 -21.12009 -0 0 12.1133 -18.989 6.084311 2.343163 4.235964 -22.41577 -4.306076 -87.22945 11.38278 18.20629 0 0 -15.70184 15.03236 16.38944 -13.13625
-764.9234 106.6963 2548.217 -5.32231 -8.162607 -37.46078 5.037091 3.51914 4.700156 -0 14.30828 -0 -3.042734 -9.166837 -5.349463 -1.430514 -9.652166 -5.608901 -0 53.55829 -0 -6.862223 -7.441087 18.31195 1.572318 -0.3458645 5.722859 2.162495 12.79538 -8.552245 1.874674 23.21237 1.526214 -1.307374 -23.75164 6.184229 -8.887545 -25.05197 11.9245 98.98705 20.94372 -19.55983 -0 0 14.03455 -18.93294 6.798063 3.173374 3.425162 -21.99201 -4.27214 -87.90299 11.38674 21.02915 0 0 -13.34443 14.45477 16.48952 -11.53098
-768.3611 106.6687 2552.825 -5.259232 -7.896671 -38.25343 4.908595 7.637588 4.563569 -0 12.71655 -0 -2.799043 -11.49823 -4.507439 -0.2553497 -15.23184 -4.751252 -0 46.44458 -0 -6.370285 -7.449337 19.32665 1.634744 -0.3045854 6.243576 1.979633 13.05404 -8.310497 1.912255 22.91254 1.184803 -1.592529 -23.21988 6.004309 -8.586126 -26.23339 11.98563 98.07172 21.37079 -17.90012 -0 0 16.07161 -18.82573 7.597978 4.030919 2.656107 -21.55503 -4.226965 -88.58165 11.37227 23.81763 0 0 -11.17632 13.84875 16.57796 -9.936276
-771.7546 106.1346 2557.466 -4.986554 -7.269153 -38.9718 4.57245 11.23672 4.123097 -0 11.60095 -0 -2.666943 -13.81818 -3.590419 0.7542869 -19.41953 -4.177481 -0 37.86277 -0 -5.976545 -7.419903 20.04985 1.675581 -0.3149403 6.734263 1.807409 13.24956 -8.071963 1.919663 22.58974 0.8955614 -1.800334 -22.6442 5.805206 -8.233101 -27.31497 12.01408 97.04126 21.74349 -16.26366 -0 0 18.098 -18.68281 8.419246 4.853591 1.984706 -21.1594 -4.202895 -89.24407 11.32747 26.42302 0 0 -9.307069 13.2491 16.62423 -8.434231
-775.1777 105.2435 2562.266 -4.56192 -6.45377 -39.62447 4.043352 14.26014 3.512092 -0 11.28514 -0 -2.559752 -15.48091 -2.623301 1.323222 -22.24833 -4.002448 -0 29.69919 -0 -5.751716 -7.39823 20.49535 1.694263 -0.3655911 7.169902 1.657357 13.38666 -7.852845 1.888586 22.26876 0.6859182 -1.90017 -22.06136 5.585857 -7.836856 -28.2284 12.01969 95.97374 22.03398 -14.7823 -0 0 19.96843 -18.52437 9.177206 5.571701 1.454924 -20.85183 -4.225763 -89.86993 11.24587 28.71037 0 0 -7.783939 12.70348 16.60648 -7.114293
-778.687 104.1778 2567.33 -4.110985 -5.725918 -40.23634 3.358102 16.71958 2.944448 -0 12.13675 -0 -2.390264 -15.87956 -1.732464 1.297897 -23.84386 -4.265227 -0 23.3009 -0 -5.661495 -7.486449 20.80802 1.692508 -0.4362517 7.529531 1.538177 13.47697 -7.667634 1.81787 21.97899 0.5730744 -1.877675 -21.51598 5.351265 -7.416522 -28.92158 12.01592 94.96487 22.23435 -13.57937 -0 0 21.54003 -18.37367 9.785551 6.123782 1.093917 -20.6681 -4.312426 -90.43604 11.12686 30.56771 0 0 -6.610913 12.26337 16.51456 -6.057334
-782.3196 103.1271 2572.72 -3.72282 -5.300549 -40.81164 2.545045 18.57057 2.635711 -0 14.53858 -0 -2.132611 -14.58228 -1.053713 0.6840556 -24.34425 -4.890916 -0 19.27102 -0 -5.553298 -7.727853 21.07599 1.673104 -0.504028 7.797377 1.454304 13.53586 -7.527824 1.713168 21.74818 0.5625844 -1.735281 -21.05181 5.111908 -6.997952 -29.36244 12.01665 94.11056 22.3543 -12.75259 -0 0 22.69373 -18.25401 10.17299 6.466929 0.9112506 -20.62914 -4.468312 -90.9152 10.97573 31.91098 0 0 -5.770777 11.9736 16.35052 -5.32533
-786.0891 102.2887 2578.451 -3.405546 -5.243248 -41.3062 1.631399 19.61928 2.748639 -0 18.84193 -0 -1.796965 -11.43461 -0.6838757 -0.3677892 -23.84344 -5.682681 -0 17.58501 -0 -5.213876 -8.065179 21.22393 1.639057 -0.5489535 7.962313 1.406653 13.57694 -7.441628 1.585459 21.59834 0.6488505 -1.490378 -20.70591 4.882943 -6.611352 -29.53748 12.03233 93.49283 22.41354 -12.36385 -0 0 23.34696 -18.1846 10.29359 6.579161 0.9022002 -20.73831 -4.685585 -91.27724 10.80336 32.68189 0 0 -5.245187 11.86497 16.1272 -4.959605
